<svg id="Layer_1" data-name="Layer 1" xmlns="http://www.w3.org/2000/svg" viewBox="0 0 841.89 595.28"><defs><style>.cls-1{fill:#163b3d;}</style></defs><polygon class="cls-1" points="100.23 210.62 109.26 210.62 109.26 302.47 100.23 291.48 52.35 235.35 52.35 302.47 42.93 302.47 42.93 210.62 52.35 221.62 100.23 277.74 100.23 210.62"/><path class="cls-1" d="M271.75,279.31l19.62,23.16H279.2l-16.48-19.62C265.47,281.67,268.61,280.49,271.75,279.31Z"/><path class="cls-1" d="M290.19,235.35a31.69,31.69,0,0,0-7.85-14.13c-6.28-7.06-14.12-10.2-23.94-10.6H229.74v91.85h9v-10.2a7.75,7.75,0,0,1,2.36-5.5c5.11-5.49,28.65-10.6,38.47-18.45a36.91,36.91,0,0,0,6.28-7.06C291.37,253.41,292.55,244.77,290.19,235.35Zm-8.63,13.35c-1.57,7.06-5.5,12.16-12.16,15.7a149.62,149.62,0,0,1-14.92,5.89,55.52,55.52,0,0,0-9.82,3.92,20.52,20.52,0,0,0-5.89,2.75V220.05H258a28.23,28.23,0,0,1,11.39,2.35,24.89,24.89,0,0,1,12.16,15.31A26.1,26.1,0,0,1,281.56,248.7Z"/><polygon class="cls-1" points="299.74 210.62 325.65 210.62 335.45 210.62 361.36 210.62 361.36 220.05 335.45 220.05 335.45 302.47 335.07 302.47 326.04 302.47 325.65 302.47 325.65 220.05 299.74 220.05 299.74 210.62"/><path class="cls-1" d="M375,210.62h9v57.31c14.52-10.21,46.31-9,47.88-29.44V210.62h9v33.76c-8.24,30.61-56.91,20.8-56.91,42v16.09h-9ZM441,258.12v44.35h-9V266A24.81,24.81,0,0,0,441,258.12Z"/><path class="cls-1" d="M175.28,234.33a21.44,21.44,0,0,0-5.3-1.2,22.21,22.21,0,0,0-5.28.11,21.54,21.54,0,0,0-7.31,2.4,22,22,0,0,0-7,6.05,21.57,21.57,0,0,0-4.25,10.65,22.53,22.53,0,0,0-.14,2.6,22.71,22.71,0,0,1,.18-2.6A21.55,21.55,0,0,1,164,233.85l.63-.09,1-.11.44,0,.45,0a22.64,22.64,0,0,1,2.33,0c.35,0,.77,0,1.12.1l.8.1c.39.06.8.14,1.19.22l.7.16.77.21.08,0h.07l.16.05c.46.13.91.3,1.37.47a.35.35,0,0,0,.44-.2.35.35,0,0,0-.21-.44Z"/><path class="cls-1" d="M145.72,254.94a25.44,25.44,0,0,1,.14-2.63,21.63,21.63,0,0,1,4.3-10.76,22.31,22.31,0,0,1,7.12-6.12,21.73,21.73,0,0,1,7.39-2.43,22.62,22.62,0,0,1,5.33-.11,22.17,22.17,0,0,1,5.36,1.21.58.58,0,0,1,.33.3.59.59,0,0,1,0,.45.53.53,0,0,1-.3.32.56.56,0,0,1-.44,0c-.4-.15-.87-.32-1.36-.46l-.16,0,.07-.23-.14.21-.07,0-.77-.2-.47-.11-.22,0c-.38-.08-.79-.15-1.18-.21l-.79-.11c-.35,0-.76-.07-1.11-.09a21.38,21.38,0,0,0-2.29,0l-.89.06c-.3,0-.63.06-1,.11l-.63.09a21.28,21.28,0,0,0-13.77,8.53,21,21,0,0,0-3.86,9.75,21.91,21.91,0,0,0-.18,2.58Zm19-21.47c-.66.09-1.3.21-1.94.36q.57-.12,1.14-.21l.64-.1c.32,0,.66-.08,1-.1l.89-.06a20.36,20.36,0,0,1,2.36,0c.35,0,.77.06,1.13.1l.81.11c.39.06.81.13,1.2.21l.23.06.47.11c.23.05.56.14.79.21l.31.09c.5.15,1,.32,1.38.47a.07.07,0,0,0,.08,0,.08.08,0,0,0,0-.06.08.08,0,0,0,0-.08.1.1,0,0,0-.06,0h0a21.78,21.78,0,0,0-5.24-1.19c-.72-.07-1.45-.1-2.17-.1A22.22,22.22,0,0,0,164.74,233.47Z"/><path class="cls-1" d="M179,233.49a23.84,23.84,0,0,0-10.83-2.33,23.2,23.2,0,0,0-21.36,15,22.3,22.3,0,0,0-1.36,8.75,22.17,22.17,0,0,1,1.48-8.71,22.87,22.87,0,0,1,21.16-14.55c.21,0,.52,0,.73,0,.48,0,1,0,1.47.08a23.22,23.22,0,0,1,3.61.59c.71.17,1.42.38,2.11.62a22.73,22.73,0,0,1,2.7,1.14.34.34,0,0,0,.29-.62Z"/><path class="cls-1" d="M146.57,246.1a23.55,23.55,0,0,1,21.58-15.18,24.1,24.1,0,0,1,10.95,2.36h0a.58.58,0,0,1,.26.78.53.53,0,0,1-.33.29.56.56,0,0,1-.44,0,21.52,21.52,0,0,0-2.67-1.12c-.65-.23-1.35-.44-2.08-.62a22.42,22.42,0,0,0-3.58-.58c-.48-.05-1-.07-1.45-.08h-.73a22.72,22.72,0,0,0-20.94,14.4,22.11,22.11,0,0,0-1.46,8.62h-.48A22.91,22.91,0,0,1,146.57,246.1Zm21.59-14.71a23.93,23.93,0,0,0-3.17.28,24.41,24.41,0,0,1,3.08-.23h.75c.48,0,1,0,1.48.08a23.34,23.34,0,0,1,3.65.6,20.51,20.51,0,0,1,2.13.63,24.82,24.82,0,0,1,2.72,1.14.12.12,0,0,0,.08,0,.22.22,0,0,0,.06-.05s0-.07,0-.08a.07.07,0,0,0-.05-.06h0a23.73,23.73,0,0,0-10.22-2.32Z"/><path class="cls-1" d="M175.39,229.72a26,26,0,0,0-13.37.5,24.69,24.69,0,0,0-11.55,7.63A23.3,23.3,0,0,0,145,254.94,23.07,23.07,0,0,1,148.45,241,24.26,24.26,0,0,1,161.31,231c.43-.15.92-.29,1.36-.41l1.2-.3.6-.12c.77-.14,1.58-.26,2.36-.33s1.66-.12,2.47-.12,1.65,0,2.47.12a27.34,27.34,0,0,1,3.47.59.34.34,0,0,0,.41-.25.34.34,0,0,0-.26-.41Z"/><path class="cls-1" d="M150.29,237.69A24.84,24.84,0,0,1,162,230a26.25,26.25,0,0,1,13.49-.51.59.59,0,0,1,.37.26.58.58,0,0,1-.62.87,25.62,25.62,0,0,0-3.45-.58c-.8-.08-1.62-.12-2.44-.12s-1.65,0-2.44.11-1.52.18-2.34.33l-.6.13c-.38.08-.82.19-1.19.29s-.91.26-1.34.4a23.91,23.91,0,0,0-12.73,10,22.9,22.9,0,0,0-3.46,13.79l-.48,0A23.46,23.46,0,0,1,150.29,237.69Zm21.5-8.13a26.52,26.52,0,0,1,3.51.59s.11,0,.12-.08,0-.06,0-.08a.14.14,0,0,0-.07,0h0a25.76,25.76,0,0,0-13.25.5l-.31.1c.27-.09.55-.17.82-.24l1.22-.3.61-.12c.83-.16,1.64-.27,2.38-.34s1.63-.12,2.43-.12A23.92,23.92,0,0,1,171.79,229.56Z"/><path class="cls-1" d="M184.2,231.5a27.74,27.74,0,0,0-18.06-3.5,25.48,25.48,0,0,0-20.67,17.33,23.51,23.51,0,0,0-.95,9.61,23.5,23.5,0,0,1,1.35-10.41,25.21,25.21,0,0,1,19.26-15.9,25.67,25.67,0,0,1,3.92-.41,27,27,0,0,1,8.42,1.07,28.07,28.07,0,0,1,5.63,2.36l.76.44a.34.34,0,0,0,.34-.59Z"/><path class="cls-1" d="M145.24,245.26a25.8,25.8,0,0,1,20.87-17.49,28.11,28.11,0,0,1,18.2,3.52.57.57,0,0,1,.28.35.56.56,0,0,1-.06.44.58.58,0,0,1-.79.21l-.24-.14-.52-.29a26.92,26.92,0,0,0-13.93-3.41,28.12,28.12,0,0,0-3.88.41,24.94,24.94,0,0,0-19.08,15.76,23.22,23.22,0,0,0-1.33,10.3l-.48.05A23.93,23.93,0,0,1,145.24,245.26Zm22.48-17.21c.44,0,.88-.06,1.32-.07a27.34,27.34,0,0,1,8.5,1.08,28.83,28.83,0,0,1,5.67,2.38l.53.3.24.14a.11.11,0,0,0,.14,0,.13.13,0,0,0,0-.08s0-.05,0-.06h0a27.78,27.78,0,0,0-13.92-3.76C169.35,227.94,168.53,228,167.72,228.05Z"/><path class="cls-1" d="M188.47,231a30.3,30.3,0,0,0-20.39-5.26,27.14,27.14,0,0,0-22.87,17.53,24.32,24.32,0,0,0-1.15,11.72,24.18,24.18,0,0,1,1.27-11.68,26.83,26.83,0,0,1,22.8-17.12c.57-.06,1.19-.09,1.77-.12h.92a29.22,29.22,0,0,1,10.34,1.85,30.34,30.34,0,0,1,6.92,3.65.34.34,0,0,0,.47-.09.34.34,0,0,0-.08-.47Z"/><path class="cls-1" d="M145,243.14a27.41,27.41,0,0,1,23.06-17.68,30.39,30.39,0,0,1,20.55,5.29h0a.58.58,0,0,1,.24.37.57.57,0,0,1-.09.44.59.59,0,0,1-.81.14,30.52,30.52,0,0,0-6.87-3.62,29,29,0,0,0-10.24-1.83h-.92c-.54,0-1.18.06-1.76.12a26.64,26.64,0,0,0-22.59,17,23.88,23.88,0,0,0-1.26,11.57l-.47.07A24.35,24.35,0,0,1,145,243.14Zm25.09-17.36h.74a29.11,29.11,0,0,1,10.42,1.86,31,31,0,0,1,7,3.68.12.12,0,0,0,.15,0,.08.08,0,0,0,0-.08.09.09,0,0,0,0-.07h0a30.09,30.09,0,0,0-17.07-5.38Z"/><path class="cls-1" d="M195.73,234.84a33.22,33.22,0,0,0-18-10.19C167,222.58,155.8,226.21,149,234.8a26,26,0,0,0-5.41,12.06,23.68,23.68,0,0,0-.32,3.46,24.61,24.61,0,0,0,.35,4.62,24.56,24.56,0,0,1,0-8.07,26,26,0,0,1,5.31-11.72c8.13-10.22,22.25-13.21,34.19-8.36A32.88,32.88,0,0,1,194,234.05c.4.4.81.83,1.19,1.25a.34.34,0,0,0,.48,0,.34.34,0,0,0,0-.48Z"/><path class="cls-1" d="M143,250.32a25.16,25.16,0,0,1,.32-3.5,26.34,26.34,0,0,1,5.46-12.17,29.58,29.58,0,0,1,29-10.23,33.32,33.32,0,0,1,18.14,10.26.53.53,0,0,1,.15.41.58.58,0,0,1-.18.41.58.58,0,0,1-.82,0c-.35-.38-.76-.83-1.18-1.24A32.71,32.71,0,0,0,183,227c-12.16-4.94-26.11-1.53-33.92,8.29a25.71,25.71,0,0,0-5.26,11.61,24.4,24.4,0,0,0,0,8l-.47.07A25.42,25.42,0,0,1,143,250.32Zm40.22-23.75a33.34,33.34,0,0,1,11,7.31c.42.42.84.87,1.19,1.26a.12.12,0,0,0,.15,0,.11.11,0,0,0,0-.07.09.09,0,0,0,0-.07h0a32.86,32.86,0,0,0-17.88-10.11c-.54-.11-1.09-.2-1.63-.27A30.92,30.92,0,0,1,183.21,226.57Z"/><path class="cls-1" d="M204.29,245.94c-5.06-13.61-18.3-23.39-33-23a29.56,29.56,0,0,0-25.58,15.44,25.54,25.54,0,0,0-2.59,16.52,25,25,0,0,1,.59-11.22c2.95-10.43,12.1-18.07,22.68-19.89,16.13-2.91,31.75,7.2,37.25,22.35a.35.35,0,0,0,.44.2.34.34,0,0,0,.2-.44Z"/><path class="cls-1" d="M145.51,238.31a29.75,29.75,0,0,1,25.78-15.57c14.34-.42,28,9.08,33.22,23.12h0a.56.56,0,0,1,0,.44.57.57,0,0,1-.33.3.52.52,0,0,1-.44,0,.56.56,0,0,1-.3-.32c-5.61-15.45-21.51-25-37-22.2A28.23,28.23,0,0,0,144,243.78a25.05,25.05,0,0,0-.59,11.12l-.47.09A25.77,25.77,0,0,1,145.51,238.31Zm58.37,7.79a.1.1,0,0,0,.13.06s.05,0,.05-.06a.09.09,0,0,0,0-.08h0a35.5,35.5,0,0,0-20.5-20.7A35.26,35.26,0,0,1,203.88,246.1Z"/><path class="cls-1" d="M202.21,235.84A37,37,0,0,0,175.45,221a33,33,0,0,0-19.49,4.7,29,29,0,0,0-13.38,18.94,25.62,25.62,0,0,0,.11,10.32,25.52,25.52,0,0,1,0-10.3,28.84,28.84,0,0,1,13.44-18.73,32.55,32.55,0,0,1,19.16-4.51,35.31,35.31,0,0,1,17.36,6.12,38.31,38.31,0,0,1,4.41,3.53,38.71,38.71,0,0,1,4.14,4.54l.1.13.2.26.2.27a.34.34,0,0,0,.47.07.33.33,0,0,0,.07-.48Z"/><path class="cls-1" d="M142.34,244.58a29,29,0,0,1,13.49-19.1,33.28,33.28,0,0,1,19.64-4.74,37,37,0,0,1,26.93,15,.59.59,0,0,1,.11.43.6.6,0,0,1-.22.38.58.58,0,0,1-.81-.12l-.5-.66a38.41,38.41,0,0,0-4.11-4.51,37.74,37.74,0,0,0-4.38-3.5,35,35,0,0,0-17.25-6.08,32.42,32.42,0,0,0-19,4.47,28.44,28.44,0,0,0-13.33,18.57,25.44,25.44,0,0,0,0,10.21l-.47.1A26.06,26.06,0,0,1,142.34,244.58Zm50.42-17.25a36.84,36.84,0,0,1,4.43,3.55,38.58,38.58,0,0,1,4.17,4.56l.5.67a.11.11,0,0,0,.14,0,.13.13,0,0,0,0-.07.13.13,0,0,0,0-.08h0a37,37,0,0,0-21.26-14A35.92,35.92,0,0,1,192.76,227.33Z"/><path class="cls-1" d="M209.58,247a40.32,40.32,0,0,0-17.64-22,35.93,35.93,0,0,0-27.69-3.89C154,223.84,145.18,232,142.48,242.36a26.12,26.12,0,0,0-.27,12.58,26.17,26.17,0,0,1,.35-12.56c2.76-10.28,11.56-18.34,21.77-21a35.52,35.52,0,0,1,27.37,4,39,39,0,0,1,10.58,9.33,40.33,40.33,0,0,1,6.65,12.43.34.34,0,1,0,.65-.21Z"/><path class="cls-1" d="M142.25,242.3c2.65-10.18,11.27-18.58,21.94-21.42a35.9,35.9,0,0,1,27.87,3.92,40.65,40.65,0,0,1,17.74,22.09.59.59,0,0,1,0,.45.61.61,0,0,1-.34.29.58.58,0,0,1-.73-.37,39.83,39.83,0,0,0-6.61-12.36,38.43,38.43,0,0,0-10.52-9.28,35.09,35.09,0,0,0-27.18-4c-10.45,2.7-18.93,10.87-21.6,20.82a25.94,25.94,0,0,0-.35,12.44L142,255A26.5,26.5,0,0,1,142.25,242.3Zm49.57-17.08a38.85,38.85,0,0,1,10.65,9.38,40.58,40.58,0,0,1,6.69,12.51.1.1,0,0,0,.13.06s.05,0,.05,0a.09.09,0,0,0,0-.08h0a40.2,40.2,0,0,0-17.53-21.83c-.55-.33-1.1-.64-1.67-.94C190.71,224.57,191.27,224.89,191.82,225.22Z"/><path class="cls-1" d="M213.25,254.89c-1.77-13-9.53-25.06-21.14-31.43a37.4,37.4,0,0,0-24.1-4.3c-11.75,1.82-22.39,10.22-25.8,21.76a26.8,26.8,0,0,0-.45,14,26.73,26.73,0,0,1,.53-14c3.46-11.45,14.07-19.75,25.77-21.49a37,37,0,0,1,23.83,4.4A41.88,41.88,0,0,1,212.57,255a.34.34,0,0,0,.39.29.35.35,0,0,0,.29-.38Z"/><path class="cls-1" d="M212.56,255.4a.6.6,0,0,1-.22-.39,41.42,41.42,0,0,0-20.56-30.95,36.59,36.59,0,0,0-23.69-4.37c-12,1.78-22.26,10.35-25.57,21.33a26.39,26.39,0,0,0-.53,13.87l-.46.11a26.91,26.91,0,0,1,.45-14.15c3.32-11.22,13.76-20,26-21.92a37.4,37.4,0,0,1,24.25,4.33,42.39,42.39,0,0,1,21.26,31.59.59.59,0,0,1-.49.66h-.08A.61.61,0,0,1,212.56,255.4Zm.25-.45a.09.09,0,0,0,0,.07l.07,0a.14.14,0,0,0,.07,0,.1.1,0,0,0,0-.08h0a42.36,42.36,0,0,0-16.89-28.64A42.25,42.25,0,0,1,212.81,255Z"/><path class="cls-1" d="M214.63,248.07c-5.83-19.67-24.85-33.79-45.59-30.75-1,.15-2,.34-3,.58-12.81,2.88-23.65,13.37-25.37,26.61a27.36,27.36,0,0,0,.66,10.43,27.1,27.1,0,0,1-.59-10.42c1.78-13.16,12.61-23.54,25.36-26.33,1-.23,2-.42,3-.56,15.3-2.23,30.48,5.41,39,18.09A45.16,45.16,0,0,1,214,248.26a.34.34,0,1,0,.65-.19Z"/><path class="cls-1" d="M140.42,244.48c1.65-12.77,12.16-23.8,25.54-26.81,1-.24,2-.44,3-.59,20.05-2.93,39.77,10.36,45.85,30.92a.56.56,0,0,1,0,.44.58.58,0,0,1-1.06-.11,44.91,44.91,0,0,0-5.87-12.48c-8.79-13.08-24-20.14-38.76-18-1,.14-2,.33-3,.55C153,221.3,142.65,232,141,244.55a27,27,0,0,0,.59,10.33l-.46.12A27.59,27.59,0,0,1,140.42,244.48Zm67.85-8.9a45.41,45.41,0,0,1,5.93,12.61.1.1,0,0,0,.13.07.08.08,0,0,0,.06,0,.09.09,0,0,0,0-.08h0a44.06,44.06,0,0,0-15.48-22.55A42.7,42.7,0,0,1,208.27,235.58Z"/><path class="cls-1" d="M216,244.42c-5.25-13.71-16.94-24.64-31.32-28.06-13.09-3.19-27.56.44-36.71,10.56-6.83,7.46-10,18.18-7.14,28-3-10.45.83-21.71,8.5-29.17,9.17-9,22.9-12.09,35.25-9a43.62,43.62,0,0,1,21.62,13,46.49,46.49,0,0,1,9.16,14.92.34.34,0,0,0,.44.2.34.34,0,0,0,.2-.44Z"/><path class="cls-1" d="M147.83,226.76c8.83-9.77,23.34-13.95,36.95-10.64,14,3.35,26.1,14.16,31.48,28.22h0a.57.57,0,0,1-.33.74.57.57,0,0,1-.75-.33,46.83,46.83,0,0,0-9.12-14.85A43.5,43.5,0,0,0,184.56,217c-12.76-3.18-26.18.24-35,8.95-7.93,7.71-11.25,19.07-8.44,28.94l-.46.13C137.86,245.48,140.62,234.65,147.83,226.76Zm58.58,2.82a47.32,47.32,0,0,1,9.22,15,.1.1,0,0,0,.13.06.08.08,0,0,0,.05,0,.11.11,0,0,0,0-.08h0a46.22,46.22,0,0,0-21.58-24.33A44.39,44.39,0,0,1,206.41,229.58Z"/><path class="cls-1" d="M181.65,271.9a21.86,21.86,0,0,0,3.69-4,22.58,22.58,0,0,0,2.54-4.62,21.82,21.82,0,0,0-7.24-25.67,22.78,22.78,0,0,0-2.19-1.42,22.7,22.7,0,0,1,2.16,1.46,21.53,21.53,0,0,1,7.1,24.69c-.06.17-.17.43-.24.6s-.26.6-.39.88l-.19.4-.2.4a22.48,22.48,0,0,1-1.18,2c-.2.29-.43.63-.65.92l-.49.64c-.25.31-.52.62-.78.92l-.49.52c-.16.17-.4.41-.57.57l-.05.06,0,0,0,0-.12.11c-.35.33-.72.64-1.09.95a.34.34,0,1,0,.44.52Z"/><path class="cls-1" d="M181.37,272.22A.56.56,0,0,1,181,272a.57.57,0,0,1,.08-.81c.32-.27.7-.59,1.08-.94l.12-.11.16.17-.11-.22.06-.06c.17-.16.4-.4.56-.57l.32-.34.16-.17c.26-.29.53-.61.77-.91s.34-.43.49-.64.44-.61.64-.91c.39-.58.78-1.25,1.17-2l.39-.79c.13-.27.26-.58.38-.88l.24-.58a21.28,21.28,0,0,0-7-24.42,20,20,0,0,0-2.14-1.44l.24-.41a23.88,23.88,0,0,1,2.21,1.43,21.75,21.75,0,0,1,7.17,9.11,22.19,22.19,0,0,1,1.74,9.22,21.63,21.63,0,0,1-1.59,7.62,22.39,22.39,0,0,1-6.3,8.71.58.58,0,0,1-.37.13Zm6.56-9.78c-.06.17-.17.44-.24.6s-.26.61-.39.9l-.4.8a21.81,21.81,0,0,1-1.2,2c-.2.3-.43.64-.65.93s-.34.45-.5.65-.52.63-.79.93l-.16.17-.33.36c-.16.17-.4.41-.57.57l-.24.22c-.38.37-.79.71-1.1,1a.1.1,0,0,0,0,.14.09.09,0,0,0,.07,0,.09.09,0,0,0,.07,0h0a20.74,20.74,0,0,0,3.65-4,21.91,21.91,0,0,0,2.52-4.57c.25-.61.46-1.22.65-1.84C188.19,261.72,188.07,262.08,187.93,262.44Z"/><path class="cls-1" d="M180.51,275.53a23.82,23.82,0,0,0,7.44-8.21,23.21,23.21,0,0,0-2.33-26,22.4,22.4,0,0,0-6.91-5.55,22.06,22.06,0,0,1,6.81,5.64,22.86,22.86,0,0,1,2,25.6c-.1.19-.26.45-.37.63-.25.41-.52.84-.8,1.23a21.78,21.78,0,0,1-2.32,2.84c-.5.52-1,1-1.59,1.51a23.42,23.42,0,0,1-2.33,1.77.34.34,0,1,0,.38.56Z"/><path class="cls-1" d="M180.21,275.82a.58.58,0,0,1-.21-1.05,23,23,0,0,0,2.31-1.75c.52-.45,1.05-.95,1.57-1.5a22.5,22.5,0,0,0,2.3-2.8c.28-.4.54-.82.79-1.22l.13-.22c.08-.14.17-.29.23-.41a22.72,22.72,0,0,0-2-25.33A22,22,0,0,0,178.6,236l.22-.42a22.83,22.83,0,0,1,7,5.61,23.56,23.56,0,0,1,2.36,26.29,24.18,24.18,0,0,1-7.51,8.29.56.56,0,0,1-.33.1Zm7.54-8.72c-.06.12-.16.28-.24.42l-.13.23c-.26.41-.53.84-.81,1.24a23.39,23.39,0,0,1-2.34,2.86c-.54.56-1.08,1.07-1.61,1.53a24,24,0,0,1-2.36,1.79.11.11,0,0,0,0,.14.09.09,0,0,0,.07,0,.08.08,0,0,0,.08,0h0a23.85,23.85,0,0,0,7.37-8.13,22.88,22.88,0,0,0,1.34-2.89A22.9,22.9,0,0,1,187.75,267.1Z"/><path class="cls-1" d="M185.58,274.3a26,26,0,0,0,6.25-11.83,24.65,24.65,0,0,0-.83-13.82A23.3,23.3,0,0,0,179,235.33a23.05,23.05,0,0,1,10.32,10,24.3,24.3,0,0,1,2.29,16.17c-.09.44-.21.93-.32,1.37s-.23.81-.35,1.19c0,.15-.14.43-.2.58s-.14.41-.21.59c-.22.59-.48,1.21-.75,1.79-.12.24-.26.56-.39.79-.2.4-.45.86-.67,1.24-.41.71-.86,1.41-1.34,2.08a26.41,26.41,0,0,1-2.24,2.71.34.34,0,1,0,.49.46Z"/><path class="cls-1" d="M184.94,274.5a.57.57,0,0,1,0-.82,26,26,0,0,0,2.23-2.69,22.62,22.62,0,0,0,1.32-2.06c.22-.38.47-.82.67-1.23.09-.16.18-.35.27-.53l.11-.25c.26-.56.52-1.17.75-1.77l.4-1.16c.12-.37.25-.81.35-1.18s.23-.92.32-1.36a23.93,23.93,0,0,0-2.28-16,22.85,22.85,0,0,0-10.2-9.89l.2-.43a23.44,23.44,0,0,1,12.18,13.45,24.75,24.75,0,0,1,.83,13.95,26.11,26.11,0,0,1-6.3,12h0a.58.58,0,0,1-.41.18h0A.54.54,0,0,1,184.94,274.5Zm6.53-11.57-.35,1.2-.41,1.18c-.24.62-.5,1.24-.77,1.81l-.12.25c-.09.19-.18.39-.27.55-.2.41-.45.87-.68,1.25a23.29,23.29,0,0,1-1.34,2.09,26,26,0,0,1-2.27,2.75.1.1,0,0,0,0,.14l.07,0a.2.2,0,0,0,.08,0h0a25.77,25.77,0,0,0,6.19-11.72c0-.11.05-.22.07-.33C191.61,262.38,191.54,262.66,191.47,262.93Z"/><path class="cls-1" d="M179.64,281a27.73,27.73,0,0,0,12.05-13.89A25.48,25.48,0,0,0,187,240.58a23.47,23.47,0,0,0-7.86-5.62,23.42,23.42,0,0,1,8.35,6.37A25.24,25.24,0,0,1,191.66,266a28.18,28.18,0,0,1-1.6,3.6,27.15,27.15,0,0,1-5.15,6.76,27.6,27.6,0,0,1-4.85,3.69l-.76.44a.33.33,0,0,0-.13.46.35.35,0,0,0,.47.13Z"/><path class="cls-1" d="M179.32,281.3A.54.54,0,0,1,179,281a.61.61,0,0,1-.05-.44.57.57,0,0,1,.27-.34l.25-.15.5-.29a27.64,27.64,0,0,0,4.82-3.67,26.72,26.72,0,0,0,5.1-6.69,28.53,28.53,0,0,0,1.59-3.57,25,25,0,0,0-4.11-24.4,23.11,23.11,0,0,0-8.26-6.31l.2-.43a23.79,23.79,0,0,1,7.93,5.68,25.78,25.78,0,0,1,4.71,26.82,28,28,0,0,1-12.15,14,.51.51,0,0,1-.29.08A.39.39,0,0,1,179.32,281.3Zm11-11.63a27.3,27.3,0,0,1-5.19,6.82,28,28,0,0,1-4.9,3.72l-.51.3-.25.15s0,0,0,.06,0,0,0,.08a.07.07,0,0,0,.06,0,.08.08,0,0,0,.08,0h0a27.72,27.72,0,0,0,11.35-12.35C190.68,268.88,190.48,269.27,190.27,269.67Z"/><path class="cls-1" d="M178,285a30.24,30.24,0,0,0,14.74-15A27.08,27.08,0,0,0,189,241.42a24.12,24.12,0,0,0-9.58-6.86,24.31,24.31,0,0,1,9.49,6.94,26.84,26.84,0,0,1,3.42,28.3c-.24.53-.52,1.08-.78,1.6l-.45.8a29.36,29.36,0,0,1-6.77,8,31.17,31.17,0,0,1-6.62,4.17.34.34,0,1,0,.29.61Z"/><path class="cls-1" d="M177.64,285.25a.57.57,0,0,1-.33-.3.58.58,0,0,1,.28-.77,29.75,29.75,0,0,0,6.57-4.14,28.73,28.73,0,0,0,6.71-8c.14-.26.31-.55.45-.8.25-.49.53-1.05.77-1.59a26.65,26.65,0,0,0-3.39-28,24,24,0,0,0-9.39-6.87l.18-.44a24.33,24.33,0,0,1,9.67,6.93,27.41,27.41,0,0,1,3.78,28.81,30.38,30.38,0,0,1-14.86,15.15.63.63,0,0,1-.44,0Zm13.65-12.93a29.28,29.28,0,0,1-6.83,8.09,30.65,30.65,0,0,1-6.67,4.2.11.11,0,0,0,0,.14.12.12,0,0,0,.06.05h.08a30.07,30.07,0,0,0,13.77-13.13Z"/><path class="cls-1" d="M171,289.35a33.15,33.15,0,0,0,17.83-10.5c7.13-8.22,9.61-19.76,5.59-30a26.18,26.18,0,0,0-7.74-10.72,24.67,24.67,0,0,0-7-4,24.46,24.46,0,0,1,7,4.07,25.92,25.92,0,0,1,7.5,10.46c4.79,12.15.31,25.88-9.85,33.79a33,33,0,0,1-11.75,5.83c-.55.15-1.13.28-1.68.4a.35.35,0,0,0-.26.41.34.34,0,0,0,.41.25Z"/><path class="cls-1" d="M170.6,289.51a.56.56,0,0,1-.26-.36.57.57,0,0,1,.08-.44.55.55,0,0,1,.36-.25c.51-.11,1.1-.25,1.66-.4a32.77,32.77,0,0,0,11.67-5.79c10.36-8.06,14.38-21.84,9.78-33.51a25.8,25.8,0,0,0-7.43-10.37,24.36,24.36,0,0,0-6.9-4l.17-.45a26,26,0,0,1,4.21,2,25.47,25.47,0,0,1,2.87,2,26.38,26.38,0,0,1,7.81,10.81A29.59,29.59,0,0,1,189,279a33.39,33.39,0,0,1-18,10.59h-.13A.55.55,0,0,1,170.6,289.51Zm13.81-6.86a33.54,33.54,0,0,1-11.84,5.87c-.58.15-1.18.29-1.69.4a.12.12,0,0,0-.07.12.09.09,0,0,0,0,.07.09.09,0,0,0,.08,0h0a32.89,32.89,0,0,0,17.7-10.43c.36-.41.7-.83,1-1.26A31.31,31.31,0,0,1,184.41,282.65Z"/><path class="cls-1" d="M157.09,291.22c14.31,2.42,29.4-4.15,36.37-17.09a29.52,29.52,0,0,0-.58-29.87,25.53,25.53,0,0,0-13-10.51,25.21,25.21,0,0,1,9.43,6.12c7.55,7.78,9.59,19.51,5.88,29.59-5.54,15.42-22.11,23.9-38,21.09a.34.34,0,0,0-.11.67Z"/><path class="cls-1" d="M157.05,291.45a.53.53,0,0,1-.38-.23.56.56,0,0,1-.1-.43.59.59,0,0,1,.67-.48c16.18,2.87,32.4-6.13,37.72-20.93A28.24,28.24,0,0,0,189.12,240a24.88,24.88,0,0,0-9.33-6.07l.16-.44a25.69,25.69,0,0,1,13.13,10.6,29.74,29.74,0,0,1,.59,30.11C187.78,285.18,175.7,292,163,292A35,35,0,0,1,157.05,291.45Zm.11-.67a.1.1,0,0,0-.12.09.07.07,0,0,0,0,.07.07.07,0,0,0,.06,0h0a35.47,35.47,0,0,0,28.09-7.32A35.23,35.23,0,0,1,157.16,290.78Z"/><path class="cls-1" d="M166.87,294.47a37,37,0,0,0,26.25-15.74,33,33,0,0,0,5.68-19.24,29,29,0,0,0-9.72-21.06,25.73,25.73,0,0,0-9-5.06A25.6,25.6,0,0,1,189,238.5a28.86,28.86,0,0,1,9.5,21,32.61,32.61,0,0,1-5.68,18.85,35.38,35.38,0,0,1-14,12,37.28,37.28,0,0,1-11.26,3.37l-.16,0-.33.05-.33,0a.35.35,0,0,0-.3.38.35.35,0,0,0,.38.3Z"/><path class="cls-1" d="M166.47,294.59a.55.55,0,0,1-.21-.39.57.57,0,0,1,.5-.64l.82-.1a38.09,38.09,0,0,0,6-1.31,39.07,39.07,0,0,0,5.23-2,35,35,0,0,0,13.89-11.9,32.36,32.36,0,0,0,5.63-18.71,28.37,28.37,0,0,0-9.42-20.82A25.47,25.47,0,0,0,180,233.6l.15-.45a25.85,25.85,0,0,1,9.08,5.11A29,29,0,0,1,199,259.48a33.28,33.28,0,0,1-5.71,19.38,37,37,0,0,1-26.42,15.85h-.07A.6.6,0,0,1,166.47,294.59Zm12.5-4a38.4,38.4,0,0,1-11.33,3.39l-.82.1a.1.1,0,0,0-.09.11.07.07,0,0,0,0,.07.07.07,0,0,0,.07,0h0a36.92,36.92,0,0,0,22.74-11.42A36.1,36.1,0,0,1,179,290.54Z"/><path class="cls-1" d="M153.55,295.28A40.27,40.27,0,0,0,181.39,291a35.88,35.88,0,0,0,17.21-22c2.77-10.25.11-22-7.51-29.48A26.17,26.17,0,0,0,180.33,233a26.09,26.09,0,0,1,10.7,6.58c7.53,7.53,10.11,19.18,7.29,29.34a35.49,35.49,0,0,1-17.17,21.69,38.9,38.9,0,0,1-13.37,4.51,40.44,40.44,0,0,1-14.09-.46.33.33,0,0,0-.4.26.33.33,0,0,0,.26.4Z"/><path class="cls-1" d="M153.5,295.52a.55.55,0,0,1-.36-.25.58.58,0,0,1-.09-.44.6.6,0,0,1,.69-.45,40,40,0,0,0,14,.46A38.43,38.43,0,0,0,181,290.36a35,35,0,0,0,17.05-21.54c2.88-10.4,0-21.83-7.23-29.12a26,26,0,0,0-10.6-6.52l.14-.45a26.38,26.38,0,0,1,10.86,6.58c7.48,7.39,10.46,19.05,7.57,29.71a35.89,35.89,0,0,1-17.32,22.18,40.25,40.25,0,0,1-19.82,5.14A41.07,41.07,0,0,1,153.5,295.52Zm27.77-4.74a38.85,38.85,0,0,1-13.45,4.53,40.52,40.52,0,0,1-14.18-.46.1.1,0,0,0-.12.08.11.11,0,0,0,0,.08.14.14,0,0,0,.07,0h0a40.24,40.24,0,0,0,27.68-4.26c.55-.31,1.09-.63,1.63-1C182.37,290.15,181.82,290.47,181.27,290.78Z"/><path class="cls-1" d="M144.86,294.5c12.18,5,26.46,4.28,37.78-2.59a37.36,37.36,0,0,0,15.78-18.72c4.3-11.08,2.34-24.5-5.95-33.23a26.83,26.83,0,0,0-11.92-7.4A26.94,26.94,0,0,1,192.41,240c8.19,8.73,10.07,22.07,5.73,33.06a37,37,0,0,1-15.73,18.45,41.87,41.87,0,0,1-37.3,2.34.34.34,0,1,0-.25.63Z"/><path class="cls-1" d="M144.77,294.72a.54.54,0,0,1-.32-.31.56.56,0,0,1,0-.44.58.58,0,0,1,.76-.32,41.4,41.4,0,0,0,37.08-2.33A36.63,36.63,0,0,0,197.92,273c4.45-11.27,2.16-24.45-5.68-32.82a26.52,26.52,0,0,0-11.75-7.39l.13-.45h0a26.91,26.91,0,0,1,12,7.46c8.06,8.49,10.47,21.94,6,33.47a37.43,37.43,0,0,1-15.88,18.84A41.18,41.18,0,0,1,161.35,298,43.64,43.64,0,0,1,144.77,294.72Zm.25-.63a.1.1,0,0,0-.13.06.11.11,0,0,0,0,.08.1.1,0,0,0,.06,0h0A42.35,42.35,0,0,0,178.2,294,42.23,42.23,0,0,1,145,294.09Z"/><path class="cls-1" d="M150.08,299.11C170,303.9,191.75,294.48,199.5,275c.37-.94.72-1.93,1-2.91,3.9-12.52.24-27.16-10.37-35.27a27.19,27.19,0,0,0-9.36-4.64,27,27,0,0,1,9.32,4.69c10.5,8.13,14.08,22.69,10.12,35.13-.29,1-.64,1.95-1,2.88-5.72,14.36-19.93,23.69-35.16,24.73a45.57,45.57,0,0,1-13.82-1.16.33.33,0,0,0-.41.25.34.34,0,0,0,.26.41Z"/><path class="cls-1" d="M150,299.34h0a.6.6,0,0,1-.36-.26.61.61,0,0,1-.07-.44.6.6,0,0,1,.26-.36.56.56,0,0,1,.44-.06A45,45,0,0,0,164,299.37c15.72-1.07,29.44-10.71,34.95-24.57.38-.95.72-1.91,1-2.87,4.08-12.8-.05-27.14-10-34.87a27.15,27.15,0,0,0-9.25-4.65l.13-.46h0a27.3,27.3,0,0,1,9.44,4.68c10.24,7.82,14.54,22.43,10.46,35.53-.3,1-.64,2-1,2.93-6.22,15.65-22,25.5-39.17,25.5A45.34,45.34,0,0,1,150,299.34Zm14,.5a45,45,0,0,1-13.88-1.16c-.05,0-.11,0-.13.07a.13.13,0,0,0,0,.08.1.1,0,0,0,.06.05h0a44.06,44.06,0,0,0,27.2-2.1A42.63,42.63,0,0,1,164.06,299.84Z"/><path class="cls-1" d="M152.53,302.15c14.5,2.31,29.8-2.35,40-13.09,9.3-9.74,13.4-24.09,9.21-37.07-3-9.65-10.74-17.76-20.7-20.2,10.54,2.66,18.39,11.58,21,22,3.24,12.46-1,25.88-9.82,35A43.6,43.6,0,0,1,170.14,301a46.67,46.67,0,0,1-17.51.47.35.35,0,0,0-.39.28.34.34,0,0,0,.29.39Z"/><path class="cls-1" d="M152.49,302.39a.63.63,0,0,1-.38-.23.58.58,0,0,1,.56-.91,47,47,0,0,0,17.42-.47A43.6,43.6,0,0,0,192,288.61c9.14-9.46,12.88-22.8,9.76-34.81-2.71-10.72-10.89-19.27-20.84-21.78l.12-.46c9.64,2.36,17.64,10.16,20.86,20.36,4.05,12.53.41,27.18-9.26,37.31A45.48,45.48,0,0,1,159.78,303,47.21,47.21,0,0,1,152.49,302.39Zm17.71-1.15a47.32,47.32,0,0,1-17.6.48.1.1,0,0,0-.12.08.1.1,0,0,0,0,.08.15.15,0,0,0,.06,0h0a46.28,46.28,0,0,0,31.84-6.51A44.43,44.43,0,0,1,170.2,301.24Z"/><path class="cls-1" d="M145.92,258.63a22,22,0,0,0,1.61,5.19,22.49,22.49,0,0,0,2.73,4.51,21.62,21.62,0,0,0,5.74,5.13,22,22,0,0,0,8.6,3.06,21.63,21.63,0,0,0,11.51-1.62,22.19,22.19,0,0,0,2.33-1.19,23,23,0,0,1-2.34,1.15,21.54,21.54,0,0,1-24.94-6.2l-.4-.51-.57-.78L150,267c-.08-.11-.18-.27-.25-.38a21.23,21.23,0,0,1-1.15-2c-.15-.31-.33-.69-.47-1s-.22-.52-.31-.75-.28-.76-.41-1.14l-.21-.68-.21-.78v-.15l0-.16c-.11-.47-.2-.94-.28-1.42a.33.33,0,0,0-.39-.28.34.34,0,0,0-.28.4Z"/><path class="cls-1" d="M164.57,276.75a22.31,22.31,0,0,1-8.69-3.08,21.79,21.79,0,0,1-5.8-5.19,22.31,22.31,0,0,1-4.39-9.81.58.58,0,0,1,.09-.44.6.6,0,0,1,.38-.24.59.59,0,0,1,.43.1.6.6,0,0,1,.24.38c.07.42.15.91.27,1.4l0,.17-.23,0,.25,0,0,.07c0,.23.14.55.2.77s.09.3.14.45l.07.23c.12.37.26.76.4,1.12s.21.51.31.74.31.69.47,1a22.31,22.31,0,0,0,1.13,2l.49.74c.17.24.37.52.56.77s.28.36.4.49A21.28,21.28,0,0,0,176,274.64a21.65,21.65,0,0,0,2.32-1.14l.24.42a23.56,23.56,0,0,1-2.35,1.19,21.5,21.5,0,0,1-8.73,1.84A21.89,21.89,0,0,1,164.57,276.75Zm-18.33-18.29a.1.1,0,0,0-.07.05.08.08,0,0,0,0,.07h0a21.63,21.63,0,0,0,1.59,5.13,22.07,22.07,0,0,0,2.7,4.47c.41.51.83,1,1.28,1.49q-.39-.44-.75-.87c-.12-.15-.3-.37-.4-.51s-.4-.54-.58-.79l-.5-.75c-.45-.72-.84-1.41-1.16-2.05-.16-.32-.34-.7-.48-1s-.22-.52-.31-.76-.29-.77-.41-1.15l-.07-.22c-.06-.16-.11-.34-.15-.47l-.21-.78-.07-.32c-.12-.51-.21-1-.28-1.43a.14.14,0,0,0,0-.07l-.06,0Z"/><path class="cls-1" d="M143.34,255.83a24,24,0,0,0,3.4,10.55,23.21,23.21,0,0,0,23.7,11,22.45,22.45,0,0,0,8.26-3.21,22.19,22.19,0,0,1-8.29,3.08,22.87,22.87,0,0,1-23.18-11.05c-.11-.18-.26-.45-.36-.64-.23-.42-.47-.87-.67-1.3a23.26,23.26,0,0,1-1.3-3.43c-.2-.7-.38-1.42-.51-2.14a23.46,23.46,0,0,1-.37-2.9.34.34,0,0,0-.36-.32.35.35,0,0,0-.32.37Z"/><path class="cls-1" d="M146.53,266.5a24.09,24.09,0,0,1-3.42-10.65.53.53,0,0,1,.14-.43.58.58,0,0,1,.4-.19.6.6,0,0,1,.42.14.58.58,0,0,1,.19.4,23,23,0,0,0,.36,2.87c.13.68.3,1.39.51,2.11a21.67,21.67,0,0,0,1.29,3.4c.2.43.43.87.65,1.28l.13.23.23.41A22.76,22.76,0,0,0,170.38,277a22.23,22.23,0,0,0,8.19-3.05l.26.4a22.85,22.85,0,0,1-8.35,3.24,22.27,22.27,0,0,1-3.81.32A23.65,23.65,0,0,1,146.53,266.5Zm-2.85-10.8a.07.07,0,0,0-.07,0,.09.09,0,0,0,0,.07h0a23.67,23.67,0,0,0,3.36,10.45,22.8,22.8,0,0,0,1.82,2.6,21.53,21.53,0,0,1-1.73-2.55,3.89,3.89,0,0,1-.25-.42l-.12-.22c-.23-.43-.47-.88-.68-1.32a23.51,23.51,0,0,1-1.31-3.46c-.21-.74-.38-1.47-.51-2.16a22.14,22.14,0,0,1-.37-2.93.13.13,0,0,0-.11-.1Z"/><path class="cls-1" d="M141.87,260.84A26.16,26.16,0,0,0,149,272.17a24.78,24.78,0,0,0,12.38,6.19,23.32,23.32,0,0,0,17.56-3.78,23.06,23.06,0,0,1-13.81,3.94,24.35,24.35,0,0,1-15.15-6.1c-.34-.3-.71-.65-1-1s-.59-.61-.86-.9c-.11-.12-.3-.33-.4-.46a22.66,22.66,0,0,1-1.48-1.88,23.67,23.67,0,0,1-1.33-2.08c-.41-.71-.79-1.45-1.13-2.19a27.84,27.84,0,0,1-1.23-3.3.33.33,0,0,0-.42-.23.35.35,0,0,0-.23.43Z"/><path class="cls-1" d="M161.34,278.59a24.92,24.92,0,0,1-12.51-6.25,26.18,26.18,0,0,1-7.18-11.43.55.55,0,0,1,0-.45.53.53,0,0,1,.34-.28.58.58,0,0,1,.72.39,24.3,24.3,0,0,0,1.22,3.27c.33.73.71,1.46,1.11,2.17s.86,1.41,1.33,2.07.91,1.22,1.45,1.86l.41.45c.26.29.57.62.84.89s.69.66,1,1a24,24,0,0,0,15,6,23,23,0,0,0,13.66-3.9l.27.4a23.27,23.27,0,0,1-13.39,4.2A24.57,24.57,0,0,1,161.34,278.59Zm-19.17-17.95a.08.08,0,0,0-.06.05.08.08,0,0,0,0,.07h0A25.64,25.64,0,0,0,149.16,272l.23.22-.61-.59c-.28-.28-.59-.61-.86-.91l-.42-.46c-.55-.65-1.05-1.29-1.48-1.9a24.2,24.2,0,0,1-1.35-2.1c-.41-.72-.8-1.47-1.13-2.21a24,24,0,0,1-1.24-3.34.12.12,0,0,0-.1-.07Z"/><path class="cls-1" d="M139,252.32a27.8,27.8,0,0,0,6,17.38A25.52,25.52,0,0,0,170.36,279a23.66,23.66,0,0,0,8.8-4,23.57,23.57,0,0,1-9.69,4,25.22,25.22,0,0,1-23.41-8.73,27.83,27.83,0,0,1-2.31-3.19,26.84,26.84,0,0,1-3.28-7.83,27.47,27.47,0,0,1-.77-6.05c0-.34,0-.57,0-.88a.34.34,0,0,0-.33-.34.35.35,0,0,0-.35.34Z"/><path class="cls-1" d="M144.83,269.85a28.1,28.1,0,0,1-6.05-17.53.57.57,0,0,1,.16-.41.58.58,0,0,1,.41-.17h0a.58.58,0,0,1,.57.58v.87a27.55,27.55,0,0,0,.77,6A26.76,26.76,0,0,0,144,267a26.16,26.16,0,0,0,2.3,3.16,24.92,24.92,0,0,0,23.18,8.64,23.24,23.24,0,0,0,9.59-4l.28.38a24,24,0,0,1-8.89,4,24.29,24.29,0,0,1-5.29.58A26,26,0,0,1,144.83,269.85Zm-5.55-17.6a.09.09,0,0,0,0,.07h0a27.69,27.69,0,0,0,5,16c-.25-.36-.5-.73-.73-1.11a27.11,27.11,0,0,1-3.31-7.9,27.5,27.5,0,0,1-.78-6.11,6,6,0,0,1,0-.6v-.28a.1.1,0,0,0-.11-.1h0A.11.11,0,0,0,139.28,252.25Z"/><path class="cls-1" d="M136.4,248.9a30.27,30.27,0,0,0,5.65,20.28,27.08,27.08,0,0,0,26.6,11,24.32,24.32,0,0,0,10.74-4.86,24.35,24.35,0,0,1-10.76,4.74,26.83,26.83,0,0,1-26.22-11.19c-.34-.47-.68-1-1-1.47l-.47-.79a29.53,29.53,0,0,1-3.57-9.88,30.5,30.5,0,0,1-.3-7.81.33.33,0,0,0-.31-.37.34.34,0,0,0-.37.31Z"/><path class="cls-1" d="M141.85,269.32a30.34,30.34,0,0,1-5.68-20.44.55.55,0,0,1,.2-.39.6.6,0,0,1,.42-.14.57.57,0,0,1,.39.2.6.6,0,0,1,.14.43,30.42,30.42,0,0,0,.3,7.75,28.8,28.8,0,0,0,3.53,9.8l.47.78c.29.46.64,1,1,1.47a26.64,26.64,0,0,0,26,11.08,23.87,23.87,0,0,0,10.65-4.69l.29.37a24.33,24.33,0,0,1-10.83,4.92,25.54,25.54,0,0,1-4.6.41A27.7,27.7,0,0,1,141.85,269.32Zm-5.17-20.47a.07.07,0,0,0,0,.07h0a30,30,0,0,0,4.48,18.49l-.38-.64a29.24,29.24,0,0,1-3.59-10,30.9,30.9,0,0,1-.31-7.87.09.09,0,0,0,0-.08.14.14,0,0,0-.07,0h0A.09.09,0,0,0,136.68,248.85Z"/><path class="cls-1" d="M136.14,240.67a33.11,33.11,0,0,0,.19,20.69c3.58,10.38,12.46,18.34,23.45,19.87a26.17,26.17,0,0,0,12.86-1.38,23.88,23.88,0,0,0,3.16-1.47,24.35,24.35,0,0,0,3.83-2.6,25,25,0,0,1-7,4A26.08,26.08,0,0,1,159.81,281c-12.91-1.93-22.56-12.67-24.34-25.43a33,33,0,0,1,.83-13.09c.15-.55.32-1.11.49-1.65a.34.34,0,0,0-.22-.43.35.35,0,0,0-.43.23Z"/><path class="cls-1" d="M159.75,281.47c-10.84-1.52-19.91-9.19-23.65-20a33.39,33.39,0,0,1-.19-20.83.63.63,0,0,1,.29-.35.61.61,0,0,1,.44,0,.58.58,0,0,1,.34.29.56.56,0,0,1,0,.44c-.16.49-.34,1.08-.49,1.64a32.85,32.85,0,0,0-.82,13c1.81,13,11.73,23.37,24.14,25.22a25.71,25.71,0,0,0,12.69-1.25,24.33,24.33,0,0,0,6.94-4l.3.37a24.38,24.38,0,0,1-3.86,2.63,25.25,25.25,0,0,1-12.4,3.14A28.21,28.21,0,0,1,159.75,281.47Zm-23.33-40.79a.08.08,0,0,0,0,.06h0a32.91,32.91,0,0,0,.18,20.54c.19.53.38,1.06.59,1.58a31.49,31.49,0,0,1-1.9-7.21,33.42,33.42,0,0,1,.83-13.19c.15-.58.34-1.16.49-1.66a.09.09,0,0,0-.06-.13h0Z"/><path class="cls-1" d="M141.47,227.7c-9.25,11.19-11.11,27.54-3.38,40.05a29.54,29.54,0,0,0,26.16,14.43,25.6,25.6,0,0,0,15.6-6,25.14,25.14,0,0,1-10,5.1c-10.51,2.65-21.7-1.45-28.57-9.7-10.59-12.51-9.64-31.1.73-43.44a.34.34,0,1,0-.53-.43Z"/><path class="cls-1" d="M137.88,267.88c-7.53-12.21-6.13-28.79,3.41-40.33a.61.61,0,0,1,.39-.21.58.58,0,0,1,.5.95c-10.57,12.58-10.89,31.12-.73,43.13A28.25,28.25,0,0,0,169.78,281,25,25,0,0,0,179.7,276l.31.37a25.77,25.77,0,0,1-15.75,6.07l-1.13,0A29.86,29.86,0,0,1,137.88,267.88Zm3.85-40.07s0,0-.07,0h0A35.5,35.5,0,0,0,134,256a35.23,35.23,0,0,1,7.85-28,.12.12,0,0,0,0-.07.09.09,0,0,0,0-.07l-.06,0Z"/><path class="cls-1" d="M133.77,234.55a36.93,36.93,0,0,0,.51,30.6,33,33,0,0,0,13.81,14.54,29,29,0,0,0,23.1,2.11,25.33,25.33,0,0,0,8.88-5.26,25.44,25.44,0,0,1-8.91,5.18,28.84,28.84,0,0,1-22.94-2.27,32.67,32.67,0,0,1-13.48-14.34,35.3,35.3,0,0,1-3.38-18.1,37.6,37.6,0,0,1,.85-5.58,38.62,38.62,0,0,1,1.86-5.85l.06-.15c.05-.11.09-.2.13-.31l.13-.31a.32.32,0,0,0-.18-.44.33.33,0,0,0-.44.18Z"/><path class="cls-1" d="M148,279.9a33.33,33.33,0,0,1-13.92-14.64,37,37,0,0,1-.51-30.8.53.53,0,0,1,.31-.31.59.59,0,0,1,.45,0,.58.58,0,0,1,.3.76l-.32.76a37.43,37.43,0,0,0-1.85,5.82,37.06,37.06,0,0,0-.84,5.54A35,35,0,0,0,135,265a32.43,32.43,0,0,0,13.39,14.23,28.41,28.41,0,0,0,22.75,2.26,25.64,25.64,0,0,0,8.82-5.13l.32.35a26.1,26.1,0,0,1-9,5.31,27.77,27.77,0,0,1-9.08,1.51A30,30,0,0,1,148,279.9ZM134,234.59a.08.08,0,0,0,0,0h0a37,37,0,0,0-1.47,25.41A36,36,0,0,1,131.12,247a38,38,0,0,1,.86-5.61,37.26,37.26,0,0,1,1.87-5.89l.32-.77a.09.09,0,0,0,0-.13H134Z"/><path class="cls-1" d="M139.72,222.61a40.36,40.36,0,0,0-10.21,26.25A35.92,35.92,0,0,0,140,274.78c7.49,7.53,19,11.08,29.29,8.24a26.19,26.19,0,0,0,11-6.06,26.06,26.06,0,0,1-11.05,6c-10.28,2.75-21.66-.84-29.06-8.37a35.53,35.53,0,0,1-10.2-25.7A39.09,39.09,0,0,1,132.79,235a40.48,40.48,0,0,1,7.44-12,.34.34,0,0,0-.51-.45Z"/><path class="cls-1" d="M139.83,275a35.86,35.86,0,0,1-10.55-26.09,40.69,40.69,0,0,1,10.26-26.41h0a.54.54,0,0,1,.4-.19.57.57,0,0,1,.42.14.53.53,0,0,1,.19.4.6.6,0,0,1-.14.42,39.76,39.76,0,0,0-7.4,11.9,38.41,38.41,0,0,0-2.77,13.75,35,35,0,0,0,10.13,25.54c7.57,7.7,18.88,11,28.83,8.3a25.86,25.86,0,0,0,11-5.93l.32.35h0a26.4,26.4,0,0,1-11.12,6.12,28,28,0,0,1-7.4,1A31.56,31.56,0,0,1,139.83,275Zm.07-52.19h0a40.16,40.16,0,0,0-10.15,26.09c0,.64,0,1.27,0,1.9,0-.63,0-1.26,0-1.9a39,39,0,0,1,2.8-13.91,40.5,40.5,0,0,1,7.49-12,.11.11,0,0,0,0-.14.09.09,0,0,0-.07,0A.1.1,0,0,0,139.9,222.76Z"/><path class="cls-1" d="M144.74,215.47c-10.41,8.05-16.93,20.78-16.64,34a37.4,37.4,0,0,0,8.32,23c7.45,9.27,20.05,14.28,31.75,11.46a26.75,26.75,0,0,0,12.37-6.62,26.77,26.77,0,0,1-12.39,6.54c-11.65,2.73-24.15-2.31-31.5-11.57a37,37,0,0,1-8.1-22.84A41.88,41.88,0,0,1,145.16,216a.33.33,0,0,0,.06-.47.34.34,0,0,0-.48-.06Z"/><path class="cls-1" d="M136.24,272.66a37.46,37.46,0,0,1-8.38-23.17,42.45,42.45,0,0,1,16.74-34.21.64.64,0,0,1,.43-.12.57.57,0,0,1,.38.22.56.56,0,0,1,.12.43.57.57,0,0,1-.22.38,41.46,41.46,0,0,0-16.53,33.29,36.61,36.61,0,0,0,8.06,22.69c7.53,9.49,20.09,14.1,31.26,11.49a26.52,26.52,0,0,0,12.27-6.48l.33.34a27,27,0,0,1-12.48,6.69,28.57,28.57,0,0,1-6.65.77A33,33,0,0,1,136.24,272.66Zm8.65-57h0a42.32,42.32,0,0,0-16.36,29A42.23,42.23,0,0,1,145,215.82s0-.06,0-.07a.1.1,0,0,0,0-.08s-.05,0-.06,0h0Z"/><path class="cls-1" d="M138.15,217.68c-14.12,14.88-16.84,38.41-3.84,54.86.63.8,1.32,1.59,2,2.33,8.89,9.64,23.4,13.79,35.73,8.65a27.18,27.18,0,0,0,8.7-5.78,27.22,27.22,0,0,1-8.73,5.73c-12.28,5-26.69.84-35.48-8.81-.69-.73-1.37-1.52-2-2.32-9.58-12.12-10.55-29.1-3.83-42.81a45.26,45.26,0,0,1,7.91-11.38.34.34,0,0,0,0-.48.34.34,0,0,0-.48,0Z"/><path class="cls-1" d="M136.15,275c-.7-.75-1.38-1.53-2-2.34-12.57-15.9-10.91-39.62,3.84-55.17a.58.58,0,0,1,.41-.18.58.58,0,0,1,.59.56.56.56,0,0,1-.16.42,44.93,44.93,0,0,0-7.87,11.32c-6.93,14.14-5.44,30.85,3.81,42.56.63.8,1.29,1.57,2,2.3,9.06,9.93,23.54,13.53,35.22,8.74a26.76,26.76,0,0,0,8.65-5.67h0l.34.34a27.56,27.56,0,0,1-8.78,5.83,29.36,29.36,0,0,1-11.3,2.21A34,34,0,0,1,136.15,275Zm2.17-57.18h0a44.12,44.12,0,0,0-11.79,24.63,42.71,42.71,0,0,1,4-13A45,45,0,0,1,138.47,218a.14.14,0,0,0,0-.15.12.12,0,0,0-.07,0A.1.1,0,0,0,138.32,217.85Z"/><path class="cls-1" d="M134.29,218.28c-9.25,11.41-12.87,27-8.65,41.16,3.79,12.93,14.17,23.65,27.5,26.51,9.88,2.18,20.75-.42,27.84-7.83-7.57,7.81-19.22,10.14-29.51,7.22-12.41-3.42-21.92-13.78-25.43-26a43.57,43.57,0,0,1,.43-25.21,46.76,46.76,0,0,1,8.34-15.4.34.34,0,0,0-.05-.48.34.34,0,0,0-.47.05Z"/><path class="cls-1" d="M153.09,286.18c-12.87-2.76-23.74-13.23-27.68-26.67-4.12-13.83-.79-29.69,8.69-41.37a.58.58,0,0,1,.39-.22.57.57,0,0,1,.43.13.58.58,0,0,1,.08.81,46.79,46.79,0,0,0-8.31,15.33,43.51,43.51,0,0,0-.42,25.06c3.62,12.65,13.3,22.56,25.26,25.86,10.65,3,22.14.21,29.28-7.15l.34.33A29.15,29.15,0,0,1,160,286.94,32.37,32.37,0,0,1,153.09,286.18ZM134.54,218.4a.11.11,0,0,0-.07,0h0a46.25,46.25,0,0,0-10.28,30.79,44.56,44.56,0,0,1,2-15.18,47.14,47.14,0,0,1,8.39-15.48.1.1,0,0,0,0-.14.07.07,0,0,0-.06,0Z"/><polygon class="cls-1" points="487.88 210.26 497.69 210.26 520.84 275.02 538.9 224 544 210.26 548.71 224 567.16 275.02 590.32 210.26 599.74 210.26 571.87 288.37 567.16 302.11 567.16 302.11 562.05 288.37 544 237.34 525.55 288.37 520.84 302.11 515.74 288.37 487.88 210.26"/><polygon class="cls-1" points="615.37 211.05 624.79 211.05 624.79 302.9 615.37 302.9 615.37 211.05"/><path class="cls-1" d="M728.31,211.05h25.51A43,43,0,0,1,785.22,224c8.64,8.64,13.35,18.85,13.74,31v2c0,12.16-3.92,22.76-12.56,31.79a46.45,46.45,0,0,1-30.61,14.13H728.31Zm9,9.42v73h16.48a34.14,34.14,0,0,0,25.91-11A35.26,35.26,0,0,0,789.93,257c0-10.6-3.53-19.23-11-26.3a34.42,34.42,0,0,0-25.13-10.21Z"/><polygon class="cls-1" points="703.41 210.19 712.44 210.19 712.44 302.04 703.41 291.06 655.53 234.92 655.53 302.04 646.11 302.04 646.11 210.19 655.53 221.19 703.41 277.31 703.41 210.19"/><path class="cls-1" d="M219.06,371.34v4.07H199.45V349.28h19.08v4.07H204.31v6.79h12.62v4H204.31v7.2Z"/><path class="cls-1" d="M269.08,372.65l1.68-3.77a14.47,14.47,0,0,0,8.62,2.87c4.07,0,5.79-1.45,5.79-3.39,0-5.64-15.53-1.95-15.53-11.65,0-4.22,3.36-7.81,10.53-7.81a16.58,16.58,0,0,1,8.7,2.32L287.34,355a14.56,14.56,0,0,0-7.21-2.05c-4,0-5.68,1.56-5.68,3.54,0,5.57,15.5,1.94,15.5,11.54,0,4.18-3.4,7.77-10.57,7.77C275.31,375.79,271.24,374.52,269.08,372.65Z"/><path class="cls-1" d="M346.5,353.38h-8.66v-4.1H360v4.1h-8.66v22H346.5Z"/><path class="cls-1" d="M426.14,369.36H413.07l-2.58,6.05h-5l11.76-26.13H422l11.8,26.13h-5.08Zm-1.61-3.8-4.93-11.43-4.89,11.43Z"/><path class="cls-1" d="M488,353.38h-8.67v-4.1h22.18v4.1h-8.66v22H488Z"/><path class="cls-1" d="M571.54,371.34v4.07h-19.6V349.28H571v4.07H556.79v6.79h12.63v4H556.79v7.2Z"/><path class="cls-1" d="M621.57,372.65l1.68-3.77a14.47,14.47,0,0,0,8.62,2.87c4.07,0,5.79-1.45,5.79-3.39,0-5.64-15.53-1.95-15.53-11.65,0-4.22,3.36-7.81,10.52-7.81a16.53,16.53,0,0,1,8.7,2.32L639.82,355a14.5,14.5,0,0,0-7.2-2.05c-4,0-5.68,1.56-5.68,3.54,0,5.57,15.5,1.94,15.5,11.54,0,4.18-3.4,7.77-10.57,7.77C627.8,375.79,623.73,374.52,621.57,372.65Z"/></svg>